<?xml version="1.0" standalone="no"?>
<!DOCTYPE svg PUBLIC "-//W3C//DTD SVG 20010904//EN"
 "http://www.w3.org/TR/2001/REC-SVG-20010904/DTD/svg10.dtd">
<svg version="1.0" xmlns="http://www.w3.org/2000/svg"
 width="1080.000000pt" height="1080.000000pt" viewBox="0 0 1080.000000 1080.000000"
 preserveAspectRatio="xMidYMid meet">
<metadata>
Created by potrace 1.14, written by Peter Selinger 2001-2017
</metadata>
<g transform="translate(0.000000,1080.000000) scale(0.100000,-0.100000)"
fill="#000000" stroke="none">
<path d="M364 6962 c-127 -22 -271 -125 -293 -209 -48 -186 -65 -302 -65 -433
0 -97 3 -115 43 -235 44 -133 80 -209 104 -218 7 -3 42 -47 77 -99 35 -51 69
-98 75 -104 5 -7 29 -34 52 -60 23 -27 54 -62 68 -79 15 -16 52 -61 83 -100
31 -38 85 -101 120 -140 117 -127 203 -270 227 -380 2 -11 9 -40 15 -64 6 -25
12 -91 14 -148 3 -81 -1 -113 -16 -155 -10 -29 -24 -70 -30 -91 -14 -49 -112
-141 -193 -178 -72 -35 -75 -35 -104 -8 -16 15 -25 18 -30 10 -10 -15 -31 54
-37 120 -3 28 -9 61 -14 75 -16 42 -11 101 12 149 20 40 20 47 7 60 -8 8 -27
16 -42 17 -15 1 -27 6 -27 11 0 5 12 7 28 4 18 -4 36 1 52 13 14 11 32 20 40
20 10 0 8 7 -9 21 -22 18 -23 23 -12 41 11 18 10 19 -8 13 -12 -4 -44 2 -75
14 -36 13 -66 18 -90 14 -25 -4 -44 0 -61 11 -21 14 -29 15 -41 5 -10 -8 -14
-8 -14 0 0 7 -9 5 -25 -5 -14 -9 -23 -19 -21 -22 3 -2 -17 -30 -44 -60 -38
-42 -56 -75 -77 -136 -27 -80 -33 -113 -25 -130 3 -4 8 -2 13 5 6 10 9 3 8
-21 -1 -34 6 -120 15 -190 9 -64 29 -135 47 -170 11 -19 19 -40 19 -46 0 -7
16 -28 35 -48 24 -25 44 -36 63 -36 16 0 41 -9 55 -20 36 -29 81 -34 287 -35
177 0 249 9 286 36 5 5 20 6 32 2 15 -3 40 6 77 28 56 34 63 43 45 54 -22 13
2 23 30 12 24 -9 32 -8 49 8 25 21 27 57 6 75 -29 24 -6 22 30 -3 l38 -26 33
22 c53 34 73 122 29 133 -13 3 -29 12 -36 20 -20 24 12 17 55 -12 21 -14 42
-22 46 -18 19 20 68 132 74 169 4 22 13 49 20 60 11 17 12 27 1 51 -14 34 -40
58 -53 50 -10 -6 -117 92 -109 100 3 3 29 -10 58 -29 77 -48 85 -50 98 -21 20
45 14 105 -14 134 -23 24 -24 28 -10 40 28 24 11 116 -31 165 -13 16 -24 31
-25 34 0 3 -2 13 -4 21 -2 8 -7 29 -10 45 -3 17 -14 42 -23 56 -60 93 -96 141
-150 197 -34 35 -72 77 -84 94 -13 16 -28 35 -33 41 -6 7 -24 30 -40 52 -48
64 -78 96 -105 111 -14 7 -45 32 -70 54 -25 23 -68 57 -96 75 -27 18 -63 51
-79 72 -15 21 -42 54 -60 73 -51 56 -79 181 -76 340 4 191 12 255 42 315 25
49 60 71 129 80 89 11 165 -33 219 -129 44 -78 47 -99 21 -141 -30 -49 -23
-74 29 -102 24 -12 49 -26 55 -31 6 -5 25 -7 41 -6 17 1 59 5 95 8 94 8 182
25 207 42 12 8 27 33 33 56 7 22 19 52 27 65 24 37 18 81 -23 163 -69 137
-136 219 -185 227 -19 3 -45 13 -59 23 -24 17 -184 64 -285 84 -11 2 -63 14
-115 27 -87 20 -271 32 -336 21z m-279 -2410 c-9 -9 -35 -11 -35 -3 0 14 12
20 26 14 8 -3 12 -8 9 -11z"/>
<path d="M3050 6954 c0 -7 -5 -14 -12 -14 -26 0 -87 -35 -99 -56 -10 -19 -9
-34 8 -84 18 -55 19 -80 15 -263 -11 -491 -2 -998 19 -1067 6 -19 13 -100 15
-180 l5 -144 -29 39 c-42 59 -105 169 -166 292 -30 59 -74 137 -98 173 -46 68
-123 235 -153 330 -10 30 -65 150 -123 265 -58 116 -110 220 -116 232 -6 13
-14 23 -18 23 -5 0 -8 4 -8 9 0 5 -18 40 -40 77 -67 115 -266 300 -318 296
-14 -1 -31 3 -38 9 -16 13 -72 3 -95 -18 -9 -7 -47 -25 -85 -39 -38 -13 -80
-33 -94 -43 -36 -26 -49 -100 -42 -241 6 -129 6 -201 -2 -545 -7 -297 -8
-1282 -2 -1350 3 -27 7 -124 11 -215 12 -346 17 -415 28 -426 4 -4 7 -15 7
-24 0 -24 28 -46 83 -65 54 -18 63 -15 72 23 5 24 11 27 49 30 34 1 51 -3 73
-20 18 -15 42 -23 68 -23 34 0 42 4 54 30 23 48 40 155 34 220 -6 66 -6 110
-3 360 1 94 -1 181 -4 195 -7 27 -7 191 -1 280 3 30 7 210 10 400 7 477 12
640 19 647 4 5 12 -9 47 -92 5 -11 31 -83 58 -160 51 -145 78 -208 123 -285
14 -25 44 -79 65 -120 47 -87 67 -123 179 -320 45 -80 106 -199 135 -265 29
-66 66 -141 82 -167 15 -26 52 -101 82 -167 29 -66 77 -164 106 -219 42 -82
52 -112 56 -163 3 -35 10 -73 16 -84 22 -42 62 -87 84 -96 28 -11 72 4 94 33
16 21 99 36 99 17 0 -4 7 -6 15 -2 9 3 24 -2 35 -12 18 -16 20 -16 52 14 18
17 36 31 41 31 14 0 7 19 -18 49 l-26 30 23 3 c21 3 23 9 26 76 3 56 -1 80
-13 99 -14 21 -15 27 -4 34 7 4 14 27 16 50 1 25 9 46 17 51 9 5 13 17 10 31
-3 12 -7 114 -9 227 -3 113 -7 252 -10 310 -2 58 -7 168 -9 245 -3 77 -7 149
-10 161 -2 11 -7 58 -11 105 -3 46 -8 100 -10 119 -18 153 -21 352 -10 675 13
367 14 351 -25 425 -38 69 -127 173 -169 195 -14 7 -37 22 -50 34 -13 11 -27
18 -32 15 -4 -2 -24 2 -44 10 -30 13 -35 13 -35 0z"/>
<path d="M9675 6962 c-83 -9 -182 -58 -244 -121 -50 -50 -56 -66 -90 -221 -30
-136 -31 -144 -37 -261 -6 -97 -4 -114 21 -195 61 -199 98 -285 129 -297 8 -3
46 -52 85 -109 39 -57 85 -119 103 -139 69 -76 142 -162 187 -218 25 -32 78
-94 116 -137 178 -200 244 -370 239 -614 -1 -69 -7 -100 -33 -165 -17 -44 -39
-89 -49 -100 -31 -36 -106 -92 -161 -120 -47 -23 -57 -25 -82 -15 -16 7 -29
16 -29 20 0 4 -7 7 -17 6 -18 -1 -29 30 -39 114 -4 30 -10 65 -15 78 -15 39
-10 101 11 144 18 38 19 77 2 79 -69 7 -92 17 -39 17 18 0 50 9 71 20 l37 20
-23 16 c-19 14 -21 19 -10 36 17 27 15 32 -7 18 -15 -9 -29 -8 -69 9 -33 14
-64 20 -93 17 -28 -3 -50 1 -68 12 -17 12 -26 14 -29 6 -2 -7 -13 -10 -26 -6
-14 3 -27 -1 -35 -10 -8 -9 -10 -16 -6 -16 3 0 -15 -24 -42 -54 -33 -38 -56
-77 -75 -128 -43 -118 -47 -163 -10 -126 9 9 10 4 3 -19 -5 -18 -8 -33 -6 -35
2 -2 7 -35 10 -73 11 -129 29 -214 56 -265 11 -19 19 -40 19 -46 0 -7 16 -28
35 -48 24 -25 44 -36 63 -36 16 0 40 -8 53 -18 41 -32 99 -39 295 -38 160 1
197 4 239 20 28 11 61 19 74 18 25 -2 131 53 131 68 0 5 -5 12 -10 15 -24 15
3 24 29 10 26 -13 30 -13 50 9 25 26 27 58 6 76 -29 24 -6 22 31 -4 l37 -25
37 26 c27 20 39 37 47 71 10 44 10 44 -23 58 -18 8 -35 18 -39 24 -11 18 20
10 56 -14 19 -13 41 -21 47 -17 14 9 70 128 76 164 3 15 11 40 19 56 11 23 12
34 2 57 -14 34 -40 58 -54 50 -9 -6 -115 93 -108 101 3 2 29 -11 58 -30 30
-18 61 -36 70 -40 22 -7 39 31 39 88 0 35 -6 49 -26 68 -22 21 -23 25 -10 37
30 24 13 119 -29 164 -14 15 -27 37 -29 49 -11 60 -29 109 -49 134 -12 15 -34
46 -48 68 -15 22 -51 66 -82 97 -30 32 -73 79 -94 105 -21 27 -40 50 -43 53
-3 3 -25 31 -50 64 -24 32 -60 69 -80 81 -19 13 -53 39 -75 59 -22 20 -63 52
-92 72 -28 19 -62 49 -74 67 -12 17 -38 47 -57 65 -19 18 -38 48 -42 65 -5 18
-16 57 -25 87 -15 53 -21 274 -10 355 2 17 6 49 9 72 8 64 44 131 80 150 19
10 57 17 97 17 60 1 71 -2 117 -34 39 -26 59 -50 82 -95 41 -80 43 -102 19
-142 -29 -47 -22 -72 30 -100 24 -12 49 -26 55 -31 6 -5 25 -7 41 -6 17 1 59
5 95 8 95 8 182 26 207 42 12 8 27 33 33 56 7 22 19 52 27 65 23 35 18 81 -18
154 -67 137 -140 228 -188 234 -17 2 -44 13 -59 24 -24 16 -251 82 -341 97
-14 3 -53 12 -86 21 -55 14 -226 23 -300 15z m-296 -2413 c-14 -8 -29 -3 -29
11 0 4 9 6 21 3 15 -4 17 -8 8 -14z"/>
<path d="M4255 6945 c-94 -17 -180 -84 -270 -210 -48 -68 -127 -269 -139 -355
-3 -25 -8 -56 -10 -70 -21 -123 -27 -189 -32 -345 -3 -99 -7 -220 -9 -270 -1
-49 -4 -196 -5 -325 -1 -129 -6 -257 -12 -285 -14 -71 -27 -615 -16 -675 4
-19 10 -52 13 -73 7 -53 70 -165 115 -207 71 -66 145 -127 168 -139 12 -6 65
-13 117 -15 75 -2 99 -7 115 -21 24 -22 50 -21 205 0 28 4 81 21 120 38 38 16
86 32 105 34 19 3 61 16 94 31 56 25 86 55 187 186 17 22 49 107 49 130 0 8
13 56 29 109 17 53 32 130 35 175 3 44 11 93 17 109 7 18 8 54 3 103 -4 41 -9
89 -10 105 -3 40 -2 39 -18 26 -19 -16 -46 0 -69 40 -14 26 -34 35 -62 29 -5
-1 -41 -1 -80 0 -121 4 -154 1 -185 -15 -16 -8 -30 -17 -30 -19 0 -3 -7 -31
-15 -63 -14 -56 -18 -95 -30 -285 -6 -99 -32 -187 -81 -274 -33 -60 -48 -74
-82 -74 -9 0 -42 -13 -72 -29 -58 -30 -97 -32 -117 -5 -6 8 -18 54 -26 102
-21 125 -14 1356 8 1392 4 7 9 79 11 159 1 80 9 190 17 243 15 95 17 100 67
160 29 35 55 69 58 78 15 41 116 93 172 88 34 -3 35 -4 42 -58 4 -30 9 -70 12
-89 3 -20 -1 -46 -10 -62 -32 -62 -17 -94 77 -164 63 -46 88 -51 136 -27 50
26 56 35 78 102 10 30 27 65 38 78 16 17 24 45 32 120 16 145 11 160 -76 248
-97 97 -139 119 -403 214 -43 16 -94 36 -114 46 -46 21 -73 23 -147 9z"/>
<path d="M8818 6915 c-3 -3 -195 -12 -458 -21 -100 -3 -183 -11 -210 -20 -69
-22 -150 -42 -200 -49 -24 -4 -48 -9 -51 -11 -4 -2 -50 -4 -103 -5 -95 -1
-202 -26 -217 -51 -12 -19 14 -77 51 -113 22 -21 67 -48 111 -65 l74 -29 270
4 c303 6 385 10 465 27 58 11 157 13 189 3 19 -6 20 -33 5 -95 -3 -14 -6 -54
-5 -90 0 -36 -5 -99 -13 -140 -7 -41 -11 -118 -9 -170 7 -172 7 -233 -1 -455
-5 -121 -10 -265 -11 -320 -1 -55 -5 -134 -10 -175 -4 -41 -9 -136 -10 -210
-1 -76 -7 -148 -14 -164 -6 -16 -14 -47 -16 -70 -3 -22 -7 -52 -10 -66 -2 -14
-7 -45 -10 -70 -14 -101 -52 -181 -115 -233 -15 -13 -39 -42 -54 -64 -32 -48
-96 -83 -169 -90 -50 -4 -53 -3 -80 31 -30 39 -56 114 -64 186 -2 25 -11 50
-19 56 -11 9 -12 18 -3 44 9 24 9 41 -1 70 -7 21 -10 49 -6 63 5 22 3 24 -22
21 -15 -2 -20 -1 -12 2 26 11 50 36 50 52 0 8 -16 30 -35 49 l-35 34 -96 -2
c-133 -4 -163 -19 -202 -101 -29 -59 -45 -156 -45 -278 0 -31 13 -137 18 -153
3 -7 6 -23 9 -37 9 -54 29 -117 52 -160 40 -77 49 -85 99 -82 25 1 45 -3 45
-8 0 -26 140 -65 220 -62 19 1 81 4 138 6 84 2 108 7 130 23 30 22 78 39 132
48 89 14 107 19 140 35 19 10 44 28 55 40 29 33 96 80 105 75 5 -3 33 35 64
84 31 49 63 94 71 101 8 7 15 23 15 35 0 12 13 36 29 51 24 23 32 43 41 99 6
39 13 81 15 95 16 94 21 205 13 250 -3 14 3 48 13 77 10 29 20 79 23 111 3 33
10 71 16 86 5 15 10 63 10 106 0 46 4 80 11 82 6 2 12 23 14 48 10 131 17 359
17 545 -1 123 3 228 10 253 8 31 8 49 0 65 -22 44 -32 135 -36 307 -2 116 -7
146 -29 209 -14 41 -32 80 -39 87 -26 24 -151 84 -186 89 -52 7 -121 12 -124
10z m-184 -2584 c8 -13 -3 -19 -24 -14 -11 3 -17 9 -14 14 7 11 31 12 38 0z
m22 -106 c-3 -8 -18 -21 -34 -29 -26 -14 -31 -14 -42 -1 -10 13 -7 16 20 21
17 4 37 15 43 26 13 19 23 7 13 -17z m-173 -62 c-7 -2 -19 -2 -25 0 -7 3 -2 5
12 5 14 0 19 -2 13 -5z m37 3 c0 -3 -4 -8 -10 -11 -5 -3 -10 -1 -10 4 0 6 5
11 10 11 6 0 10 -2 10 -4z"/>
<path d="M6388 6905 c-6 -6 -564 -34 -758 -39 -179 -4 -346 -21 -354 -35 -3
-4 7 -40 23 -80 28 -72 28 -72 24 -279 -2 -114 -6 -252 -9 -307 -5 -95 -13
-964 -17 -1790 -1 -209 2 -396 6 -415 5 -27 19 -45 57 -73 56 -42 70 -45 70
-17 0 17 5 19 32 15 17 -3 35 -8 40 -11 12 -8 10 10 -4 24 -9 9 -8 12 6 12 23
0 57 -18 78 -43 16 -18 18 -18 24 -3 5 14 10 13 32 -9 32 -32 40 -32 34 4 -4
26 -1 29 34 37 l37 9 -33 38 c-18 21 -30 40 -28 43 3 2 11 -2 18 -11 27 -33
60 -5 60 53 0 20 -13 42 -40 73 -42 45 -65 79 -55 79 3 0 23 -11 43 -25 l37
-25 32 70 32 71 7 337 c3 185 7 378 8 429 1 57 6 97 13 104 8 8 56 14 135 15
300 8 464 14 483 18 11 2 35 5 53 5 25 1 37 8 52 34 20 30 20 31 16 6 -4 -26
-3 -26 31 -19 40 10 36 6 59 50 22 42 25 58 14 65 -5 3 -7 11 -5 18 14 39 11
73 -10 126 -13 33 -21 62 -18 64 2 3 -23 18 -56 35 -59 30 -60 30 -218 27 -87
-1 -244 -6 -348 -10 -162 -7 -192 -6 -202 7 -8 9 -15 62 -18 134 -17 421 -15
391 -29 494 -3 25 -8 65 -11 90 -3 25 -7 52 -10 60 -2 8 -7 39 -10 68 -6 46
-4 52 12 53 10 0 97 2 193 4 195 4 444 14 493 20 18 2 68 6 112 10 90 7 137
14 144 21 3 3 4 22 3 42 l-3 37 21 -34 22 -34 22 28 c18 22 22 39 21 79 -3 78
-14 113 -40 130 -13 8 -26 28 -30 44 -3 16 -17 40 -30 52 -23 22 -34 23 -160
25 -74 1 -136 1 -137 0z m127 -165 c7 -12 -2 -12 -30 0 -19 8 -19 9 2 9 12 1
25 -3 28 -9z m120 -101 c10 -31 0 -33 -19 -4 -14 21 -14 25 -2 25 8 0 18 -9
21 -21z m-457 -1216 c-10 -2 -28 -2 -40 0 -13 2 -5 4 17 4 22 1 32 -1 23 -4z"/>
<path d="M7027 4465 c-12 -12 -32 -34 -44 -47 -11 -14 -28 -30 -35 -34 -12 -7
-47 -105 -85 -237 -9 -34 6 -87 26 -87 10 0 24 -7 32 -16 20 -25 109 -67 109
-51 0 7 -16 21 -35 31 -19 11 -35 22 -35 26 0 17 15 18 39 1 64 -44 91 -30 36
18 -38 33 -26 44 14 14 56 -43 91 -82 85 -96 -5 -14 18 -35 39 -35 4 0 23 -3
42 -6 25 -5 48 -1 79 13 62 27 78 61 93 201 16 153 1 188 -105 243 -37 20 -76
45 -87 57 -12 14 -21 17 -25 9 -5 -8 -23 -7 -65 4 -55 14 -57 14 -78 -8z m57
-327 c22 -17 42 -33 44 -34 2 -1 5 -14 6 -28 3 -22 1 -24 -11 -14 -8 7 -19 23
-24 35 -5 13 -24 31 -43 40 -19 9 -33 20 -30 25 8 12 13 10 58 -24z"/>
</g>
</svg>
